<svg width="128" height="128" viewBox="0 0 128 128" fill="none" xmlns="http://www.w3.org/2000/svg">
<rect width="128" height="128" rx="16" fill="#FEFFCD"/>
<path d="M12.5 81C12.6562 78.1094 13.25 75.5938 14.2812 73.4531C15.3281 71.3125 17.3594 69.3672 20.375 67.6172L24.875 65.0156C26.8906 63.8438 28.3047 62.8438 29.1172 62.0156C30.3984 60.7188 31.0391 59.2344 31.0391 57.5625C31.0391 55.6094 30.4531 54.0625 29.2812 52.9219C28.1094 51.7656 26.5469 51.1875 24.5938 51.1875C21.7031 51.1875 19.7031 52.2812 18.5938 54.4688C18 55.6406 17.6719 57.2656 17.6094 59.3438H13.3203C13.3672 56.4219 13.9062 54.0391 14.9375 52.1953C16.7656 48.9453 19.9922 47.3203 24.6172 47.3203C28.4609 47.3203 31.2656 48.3594 33.0312 50.4375C34.8125 52.5156 35.7031 54.8281 35.7031 57.375C35.7031 60.0625 34.7578 62.3594 32.8672 64.2656C31.7734 65.375 29.8125 66.7188 26.9844 68.2969L23.7734 70.0781C22.2422 70.9219 21.0391 71.7266 20.1641 72.4922C18.6016 73.8516 17.6172 75.3594 17.2109 77.0156H35.5391V81H12.5ZM50.7031 47.4375C55.0469 47.4375 58.1875 49.2266 60.125 52.8047C61.625 55.5703 62.375 59.3594 62.375 64.1719C62.375 68.7344 61.6953 72.5078 60.3359 75.4922C58.3672 79.7734 55.1484 81.9141 50.6797 81.9141C46.6484 81.9141 43.6484 80.1641 41.6797 76.6641C40.0391 73.7422 39.2188 69.8203 39.2188 64.8984C39.2188 61.0859 39.7109 57.8125 40.6953 55.0781C42.5391 49.9844 45.875 47.4375 50.7031 47.4375ZM50.6562 78.0703C52.8438 78.0703 54.5859 77.1016 55.8828 75.1641C57.1797 73.2266 57.8281 69.6172 57.8281 64.3359C57.8281 60.5234 57.3594 57.3906 56.4219 54.9375C55.4844 52.4688 53.6641 51.2344 50.9609 51.2344C48.4766 51.2344 46.6562 52.4062 45.5 54.75C44.3594 57.0781 43.7891 60.5156 43.7891 65.0625C43.7891 68.4844 44.1562 71.2344 44.8906 73.3125C46.0156 76.4844 47.9375 78.0703 50.6562 78.0703ZM80.3047 69.1172V53.9062L69.5469 69.1172H80.3047ZM80.375 81V72.7969H65.6562V68.6719L81.0312 47.3438H84.5938V69.1172H89.5391V72.7969H84.5938V81H80.375ZM104.211 61.5C106.07 61.5 107.523 60.9844 108.57 59.9531C109.617 58.9062 110.141 57.6641 110.141 56.2266C110.141 54.9766 109.641 53.8281 108.641 52.7812C107.641 51.7344 106.117 51.2109 104.07 51.2109C102.039 51.2109 100.57 51.7344 99.6641 52.7812C98.7578 53.8281 98.3047 55.0547 98.3047 56.4609C98.3047 58.0391 98.8906 59.2734 100.062 60.1641C101.234 61.0547 102.617 61.5 104.211 61.5ZM104.469 78.1172C106.422 78.1172 108.039 77.5938 109.32 76.5469C110.617 75.4844 111.266 73.9062 111.266 71.8125C111.266 69.6406 110.602 67.9922 109.273 66.8672C107.945 65.7422 106.242 65.1797 104.164 65.1797C102.148 65.1797 100.5 65.7578 99.2188 66.9141C97.9531 68.0547 97.3203 69.6406 97.3203 71.6719C97.3203 73.4219 97.8984 74.9375 99.0547 76.2188C100.227 77.4844 102.031 78.1172 104.469 78.1172ZM98.4688 63.1172C97.2969 62.6172 96.3828 62.0312 95.7266 61.3594C94.4922 60.1094 93.875 58.4844 93.875 56.4844C93.875 53.9844 94.7812 51.8359 96.5938 50.0391C98.4062 48.2422 100.977 47.3438 104.305 47.3438C107.523 47.3438 110.047 48.1953 111.875 49.8984C113.703 51.5859 114.617 53.5625 114.617 55.8281C114.617 57.9219 114.086 59.6172 113.023 60.9141C112.43 61.6484 111.508 62.3672 110.258 63.0703C111.648 63.7109 112.742 64.4453 113.539 65.2734C115.023 66.8359 115.766 68.8672 115.766 71.3672C115.766 74.3203 114.773 76.8281 112.789 78.8906C110.805 80.9375 108 81.9609 104.375 81.9609C101.109 81.9609 98.3438 81.0781 96.0781 79.3125C93.8281 77.5312 92.7031 74.9531 92.7031 71.5781C92.7031 69.5938 93.1875 67.8828 94.1562 66.4453C95.125 64.9922 96.5625 63.8828 98.4688 63.1172Z" fill="#949590"/>
</svg>
